<?xml version="1.0" standalone="no"?>
<!DOCTYPE svg PUBLIC "-//W3C//DTD SVG 20010904//EN"
 "http://www.w3.org/TR/2001/REC-SVG-20010904/DTD/svg10.dtd">
<svg version="1.0" xmlns="http://www.w3.org/2000/svg"
 width="240.000000pt" height="120.000000pt" viewBox="0 0 240.000000 120.000000"
 preserveAspectRatio="xMidYMid meet">

<g transform="translate(0.000000,120.000000) scale(0.100000,-0.100000)"
fill="#000000" stroke="none">
<path d="M82 798 c-17 -19 -21 -39 -26 -123 -2 -55 -7 -118 -11 -141 -6 -34
-3 -45 19 -71 42 -49 94 -64 211 -59 55 3 105 5 110 6 6 1 29 -4 53 -10 43
-10 98 -3 131 19 10 6 23 3 42 -12 27 -19 30 -20 70 -4 32 13 46 14 56 6 8 -7
30 -9 54 -6 23 3 52 1 64 -5 18 -8 35 -6 71 6 38 13 54 14 79 5 26 -10 37 -8
73 10 l42 21 28 -20 c32 -23 74 -28 122 -13 19 6 51 14 71 17 56 10 72 35 67
101 -6 65 -35 105 -80 105 -29 0 -30 2 -43 82 -3 21 -17 51 -31 68 -23 27 -32
30 -82 30 -32 0 -63 -4 -71 -9 -10 -6 -22 -5 -35 5 -28 19 -56 18 -117 -6
l-52 -21 -22 21 c-23 22 -74 27 -105 10 -13 -7 -27 -6 -45 2 -21 9 -32 8 -59
-4 -21 -10 -38 -13 -47 -7 -19 12 -66 11 -89 -1 -13 -7 -21 -7 -25 0 -10 16
-81 12 -120 -7 -33 -16 -37 -16 -64 0 -32 19 -86 23 -96 7 -4 -6 -19 -4 -42 5
-49 21 -76 19 -101 -7z m106 -64 c12 -8 22 -24 22 -37 1 -18 5 -15 21 16 11
20 24 37 29 37 6 0 29 -12 51 -27 l40 -26 -31 -32 c-30 -31 -39 -55 -20 -55 5
0 15 -10 21 -22 11 -20 10 -21 -2 -11 -8 6 -54 15 -102 19 l-87 7 -1 -34 c0
-19 -4 -43 -9 -54 -7 -18 -9 -18 -15 -3 -3 9 -2 25 4 37 6 11 11 63 11 116 0
95 0 96 23 90 12 -4 32 -13 45 -21z m542 -58 c7 -7 10 1 10 22 0 25 6 35 30
47 55 28 56 26 64 -110 4 -69 4 -130 1 -135 -3 -5 -16 -15 -28 -20 -22 -10
-22 -10 1 6 16 12 22 27 22 55 l0 39 -65 0 c-55 0 -65 -3 -66 -17 -1 -16 -2
-16 -6 -2 -2 9 -15 19 -29 22 -27 5 -29 -6 -18 -75 6 -34 8 -36 30 -26 13 6
25 22 27 37 l4 26 2 -27 c1 -21 -6 -31 -30 -44 -18 -9 -35 -12 -40 -7 -10 10
-33 218 -26 237 3 7 25 23 49 35 l43 21 8 -37 c4 -21 12 -42 17 -47z m314 56
c18 -35 56 -178 55 -206 -1 -23 -4 -16 -13 27 -6 27 -7 27 -90 27 l-84 0 -11
-31 c-6 -18 -11 -45 -11 -60 0 -16 -4 -29 -10 -29 -14 0 -12 34 6 115 28 126
41 152 82 169 52 21 60 20 76 -12z m152 20 c19 -13 34 -73 33 -136 0 -34 -3
-55 -6 -48 -2 6 -18 12 -34 12 -27 0 -29 -3 -29 -37 0 -20 8 -45 18 -57 17
-20 17 -20 -11 0 -26 18 -28 22 -24 84 2 38 -2 85 -10 114 -17 57 -13 63 47
75 3 0 10 -3 16 -7z m-734 -82 l-4 -80 -34 0 c-28 0 -34 -4 -34 -21 0 -11 4
-17 10 -14 7 4 10 -7 9 -33 -4 -61 -25 -41 -33 30 -14 138 -6 172 44 191 42
15 45 10 42 -73z m127 23 c-2 -77 -16 -191 -18 -143 -1 32 -4 36 -28 35 -21 0
-29 -6 -31 -22 -2 -16 -10 -23 -25 -22 -12 0 -16 3 -9 6 8 3 12 31 12 88 l0
83 38 15 c59 25 62 23 61 -40z m-442 -135 c-3 -7 -5 -2 -5 12 0 14 2 19 5 13
2 -7 2 -19 0 -25z m113 -4 c0 -9 5 -12 12 -8 8 5 9 -2 5 -25 -4 -20 -3 -30 3
-26 5 3 7 0 4 -8 -4 -10 3 -13 28 -9 41 6 34 -3 -8 -11 -28 -5 -33 -3 -42 21
-16 42 -23 94 -12 87 6 -3 10 -13 10 -21z m489 -12 c25 -35 37 -82 22 -82 -6
0 -11 8 -11 18 0 10 -9 34 -19 55 -22 44 -20 47 8 9z m566 18 c-16 -4 -34 -8
-40 -10 -5 -1 -17 -2 -25 0 -27 3 23 19 60 18 l35 0 -30 -8z m-341 -45 c-14
-19 -30 -35 -34 -35 -5 0 6 16 23 35 17 19 32 35 34 35 2 0 -8 -16 -23 -35z
m368 20 c0 -8 1 -20 2 -26 1 -10 -94 -42 -102 -34 -5 5 59 25 79 25 29 0 20
31 -11 43 -10 4 -8 6 8 6 13 1 23 -5 24 -14z m-302 -47 c0 -33 -18 -19 -22 18
-4 32 -3 34 9 18 7 -10 13 -26 13 -36z m-703 10 c-3 -7 -5 -2 -5 12 0 14 2 19
5 13 2 -7 2 -19 0 -25z m203 -13 c-24 -26 -80 -34 -108 -16 -8 5 6 6 35 4 40
-4 51 -1 67 16 11 12 21 21 24 21 3 0 -5 -11 -18 -25z m-341 -21 c14 -12 -19
-1 -35 12 -18 14 -18 14 6 3 14 -6 27 -13 29 -15z m1028 0 c-3 -3 -12 -4 -19
-1 -8 3 -5 6 6 6 11 1 17 -2 13 -5z"/>
<path d="M976 643 c-3 -3 -6 -17 -6 -29 0 -17 4 -22 15 -18 8 4 15 14 15 24 0
20 -13 33 -24 23z"/>
<path d="M1557 791 c-80 -39 -107 -67 -107 -108 0 -18 4 -41 10 -51 5 -9 13
-62 17 -116 7 -92 10 -100 35 -119 26 -19 28 -20 72 -3 61 23 96 53 96 80 0
15 9 27 25 34 25 11 25 11 25 -31 0 -75 36 -98 113 -71 34 12 49 13 79 3 32
-10 41 -9 72 9 l36 21 35 -20 c36 -22 60 -22 168 -1 88 17 118 73 83 157 -16
37 -42 55 -80 55 -23 0 -26 4 -26 38 0 46 -32 117 -58 131 -26 14 -107 14
-133 1 -14 -8 -25 -7 -41 5 -30 20 -53 19 -122 -10 l-59 -24 -32 25 c-46 35
-129 33 -208 -5z m166 -41 c34 -27 41 -52 27 -98 -20 -63 -47 -78 -130 -72
l-70 5 -1 -70 -2 -70 -7 50 c-5 28 -9 73 -9 100 -1 28 -8 59 -16 69 -8 10 -12
23 -9 28 8 12 104 60 139 69 46 11 51 10 78 -11z m245 -37 c11 -27 23 -65 27
-85 l7 -38 -43 -2 c-24 0 -63 -1 -86 -1 -41 1 -42 0 -57 -46 -8 -25 -17 -57
-20 -71 -3 -14 -3 0 -1 30 5 72 31 187 49 215 12 19 58 41 92 44 6 1 21 -20
32 -46z m160 14 c7 -15 16 -58 19 -96 l6 -70 51 4 c28 2 40 1 26 -2 l-25 -6
25 -6 c18 -5 26 -15 28 -34 3 -24 0 -27 -25 -26 -23 2 -24 2 -5 6 27 5 31 42
5 45 -10 0 -30 2 -44 3 -34 3 -49 12 -49 33 0 12 -8 17 -30 17 -27 0 -30 -3
-36 -42 -5 -37 -3 -46 17 -63 28 -22 42 -24 70 -9 11 6 25 9 31 7 6 -2 -8 -10
-30 -17 -38 -13 -42 -12 -69 8 -26 21 -28 29 -34 109 -3 48 -9 104 -14 124 -7
35 -6 37 21 41 42 6 48 3 62 -26z m-121 -179 c-3 -7 -5 -2 -5 12 0 14 2 19 5
13 2 -7 2 -19 0 -25z m-364 10 c-17 -8 -23 -20 -23 -43 0 -25 -6 -34 -27 -43
-28 -12 -28 -12 -5 4 14 11 22 27 22 45 0 26 21 49 45 48 6 0 0 -5 -12 -11z
m307 -60 c0 -15 3 -17 19 -8 11 5 27 17 35 26 9 8 16 11 16 6 0 -10 -60 -52
-73 -52 -4 0 -10 15 -15 33 -5 17 -15 31 -21 29 -7 -1 -9 2 -6 8 10 16 45 -18
45 -42z m-67 7 c-3 -9 -8 -14 -10 -11 -3 3 -2 9 2 15 9 16 15 13 8 -4z m-33
-25 c-8 -5 -19 -10 -25 -10 -5 0 -3 5 5 10 8 5 20 10 25 10 6 0 3 -5 -5 -10z"/>
<path d="M1620 654 c-20 -52 -3 -61 29 -15 26 36 26 41 1 41 -13 0 -24 -10
-30 -26z"/>
<path d="M1886 634 c-9 -25 -7 -34 8 -34 19 0 28 14 20 34 -8 20 -20 20 -28 0z"/>
<path d="M2221 704 c0 -11 3 -14 6 -6 3 7 2 16 -1 19 -3 4 -6 -2 -5 -13z"/>
<path d="M1312 680 c0 -19 2 -27 5 -17 2 9 2 25 0 35 -3 9 -5 1 -5 -18z"/>
<path d="M2231 664 c0 -11 3 -14 6 -6 3 7 2 16 -1 19 -3 4 -6 -2 -5 -13z"/>
<path d="M1432 503 c-2 -50 -42 -89 -100 -98 -20 -4 -48 -11 -62 -15 -14 -5
-41 -11 -60 -13 -33 -4 -32 -4 7 -5 42 -2 111 11 166 31 41 15 59 47 54 99
l-4 43 -1 -42z"/>
<path d="M2351 505 c-1 -35 -23 -70 -51 -85 -19 -10 -72 -23 -160 -40 l-45 -8
55 3 c68 4 142 20 169 37 27 16 44 59 38 94 l-4 29 -2 -30z"/>
<path d="M1690 457 c-20 -40 -57 -67 -117 -83 -46 -12 -47 -13 -13 -13 41 -1
107 28 133 57 10 11 17 31 15 45 -3 25 -3 25 -18 -6z"/>
<path d="M1095 407 c-11 -6 -36 -14 -55 -18 l-35 -7 40 0 c41 -1 95 20 79 31
-5 3 -18 0 -29 -6z"/>
<path d="M2015 407 c-11 -6 -38 -14 -60 -18 l-40 -6 45 -1 c44 -1 101 20 84
31 -5 3 -18 0 -29 -6z"/>
<path d="M281 389 c-56 -4 -106 -10 -109 -13 -8 -8 143 -6 198 2 75 12 21 18
-89 11z"/>
<path d="M556 393 c-4 -5 -38 -11 -74 -14 l-67 -6 71 -1 c48 -2 76 3 90 13 15
12 16 14 3 15 -9 0 -19 -3 -23 -7z"/>
<path d="M706 392 c-4 -3 -25 -9 -49 -13 l-42 -6 45 -1 c54 -1 93 11 68 21 -9
3 -19 3 -22 -1z"/>
<path d="M936 388 c-10 -6 -42 -9 -70 -6 -28 2 -67 1 -86 -3 -21 -4 11 -6 77
-5 75 1 116 5 125 14 9 9 8 12 -7 12 -11 0 -28 -6 -39 -12z"/>
<path d="M1868 394 c-3 -3 -28 -9 -55 -14 l-48 -8 45 0 c46 -1 127 26 84 27
-11 1 -23 -2 -26 -5z"/>
</g>
</svg>
