<!-- <?xml version="1.0" standalone="no"?>
<!DOCTYPE svg PUBLIC "-//W3C//DTD SVG 20010904//EN"
 "http://www.w3.org/TR/2001/REC-SVG-20010904/DTD/svg10.dtd"> -->
<svg version="1.0" xmlns="http://www.w3.org/2000/svg"
 width="240.000000pt" height="120.000000pt" viewBox="0 0 240.000000 120.000000"
 preserveAspectRatio="xMidYMid meet">

<g transform="translate(0.000000,120.000000) scale(0.100000,-0.100000)"
fill="#000000" stroke="none">
<path d="M78 723 c12 -2 32 -2 45 0 12 2 2 4 -23 4 -25 0 -35 -2 -22 -4z"/>
<path d="M218 723 c12 -2 32 -2 45 0 12 2 2 4 -23 4 -25 0 -35 -2 -22 -4z"/>
<path d="M388 723 c12 -2 30 -2 40 0 9 3 -1 5 -23 4 -22 0 -30 -2 -17 -4z"/>
<path d="M558 723 c12 -2 30 -2 40 0 9 3 -1 5 -23 4 -22 0 -30 -2 -17 -4z"/>
<path d="M673 723 c9 -2 25 -2 35 0 9 3 1 5 -18 5 -19 0 -27 -2 -17 -5z"/>
<path d="M863 723 c9 -2 25 -2 35 0 9 3 1 5 -18 5 -19 0 -27 -2 -17 -5z"/>
<path d="M1068 723 c7 -3 16 -2 19 1 4 3 -2 6 -13 5 -11 0 -14 -3 -6 -6z"/>
<path d="M1303 723 c15 -2 37 -2 50 0 12 2 0 4 -28 4 -27 0 -38 -2 -22 -4z"/>
<path d="M1638 723 c23 -2 61 -2 85 0 23 2 4 4 -43 4 -47 0 -66 -2 -42 -4z"/>
<path d="M1958 723 c7 -3 16 -2 19 1 4 3 -2 6 -13 5 -11 0 -14 -3 -6 -6z"/>
<path d="M2198 723 c12 -2 32 -2 45 0 12 2 2 4 -23 4 -25 0 -35 -2 -22 -4z"/>
<path d="M156 706 c3 -8 1 -17 -5 -21 -13 -7 -15 -45 -2 -45 14 0 28 22 33 53
4 21 1 27 -13 27 -12 0 -16 -5 -13 -14z"/>
<path d="M625 710 c3 -5 8 -10 11 -10 2 0 4 5 4 10 0 6 -5 10 -11 10 -5 0 -7
-4 -4 -10z"/>
<path d="M730 716 c0 -2 8 -10 18 -17 15 -13 16 -12 3 4 -13 16 -21 21 -21 13z"/>
<path d="M617 683 c-13 -12 -7 -18 17 -18 18 0 22 3 14 13 -12 13 -21 15 -31
5z"/>
<path d="M2273 683 c-9 -3 -13 -30 -13 -84 l0 -79 29 0 c17 0 32 4 35 8 3 5
-8 6 -25 4 l-29 -4 0 69 c0 40 5 74 12 81 13 13 11 14 -9 5z"/>
<path d="M268 673 c7 -3 16 -2 19 1 4 3 -2 6 -13 5 -11 0 -14 -3 -6 -6z"/>
<path d="M350 607 l5 -72 3 64 c2 35 -1 68 -5 72 -4 4 -6 -24 -3 -64z"/>
<path d="M450 665 c0 -8 2 -15 4 -15 2 0 6 7 10 15 3 8 1 15 -4 15 -6 0 -10
-7 -10 -15z"/>
<path d="M541 664 c0 -11 3 -14 6 -6 3 7 2 16 -1 19 -3 4 -6 -2 -5 -13z"/>
<path d="M804 652 c37 -40 46 -40 46 -2 0 17 -4 30 -10 30 -5 0 -7 -7 -4 -15
8 -20 -15 -19 -40 2 -12 10 -8 3 8 -15z"/>
<path d="M1269 602 c2 -57 0 -78 -11 -86 -22 -17 -30 -46 -13 -46 8 0 12 6 9
13 -3 8 2 20 11 27 11 9 15 32 15 86 0 40 -3 75 -8 78 -4 2 -6 -30 -3 -72z"/>
<path d="M1366 665 c-3 -9 -5 -40 -4 -68 l1 -52 7 65 c7 70 6 80 -4 55z"/>
<path d="M1700 640 c0 -34 3 -41 18 -38 12 2 17 13 17 38 0 25 -5 36 -17 38
-15 3 -18 -4 -18 -38z m30 0 c0 -11 -4 -20 -10 -20 -5 0 -10 9 -10 20 0 11 5
20 10 20 6 0 10 -9 10 -20z"/>
<path d="M2155 670 c3 -5 8 -10 11 -10 2 0 4 5 4 10 0 6 -5 10 -11 10 -5 0 -7
-4 -4 -10z"/>
<path d="M232 658 c-18 -18 -14 -43 11 -64 22 -19 22 -19 5 2 -21 24 -23 45
-6 62 7 7 10 12 7 12 -3 0 -10 -5 -17 -12z"/>
<path d="M1021 654 c0 -11 3 -14 6 -6 3 7 2 16 -1 19 -3 4 -6 -2 -5 -13z"/>
<path d="M904 575 c0 -49 1 -71 3 -48 2 23 2 64 0 90 -2 26 -3 8 -3 -42z"/>
<path d="M1167 615 c9 -19 18 -33 21 -31 4 5 -26 66 -33 66 -3 0 3 -16 12 -35z"/>
<path d="M2061 620 c14 -31 19 -36 19 -24 0 6 -7 19 -16 30 -14 18 -14 18 -3
-6z"/>
<path d="M53 590 c0 -25 2 -35 4 -22 2 12 2 32 0 45 -2 12 -4 2 -4 -23z"/>
<path d="M663 585 c0 -27 2 -38 4 -22 2 15 2 37 0 50 -2 12 -4 0 -4 -28z"/>
<path d="M1051 602 c-12 -22 -6 -32 21 -32 21 0 24 23 4 39 -12 10 -17 8 -25
-7z"/>
<path d="M1946 604 c-10 -27 -7 -34 19 -34 28 0 29 3 15 31 -13 23 -26 24 -34
3z"/>
<path d="M451 569 c-1 -9 7 -23 17 -30 15 -12 16 -12 6 1 -6 8 -14 22 -17 30
-5 13 -6 12 -6 -1z"/>
<path d="M537 560 c-3 -11 -16 -24 -29 -29 -16 -7 -18 -10 -6 -10 20 -1 48 25
48 45 0 20 -7 17 -13 -6z"/>
<path d="M721 553 c1 -19 3 -22 6 -10 3 13 11 17 24 14 17 -4 18 -3 8 9 -19
24 -39 17 -38 -13z"/>
<path d="M285 540 c10 -11 20 -20 23 -20 3 0 -3 9 -13 20 -10 11 -20 20 -23
20 -3 0 3 -9 13 -20z"/>
<path d="M1701 533 c1 -22 2 -23 6 -8 3 11 10 23 17 27 7 5 5 8 -6 8 -13 0
-18 -7 -17 -27z"/>
<path d="M140 536 c0 -17 18 -31 49 -39 23 -6 23 -5 -5 24 -30 32 -44 37 -44
15z"/>
<path d="M1425 540 c-4 -7 -18 -10 -31 -7 -13 2 -24 0 -24 -4 0 -12 41 -11 60
1 8 5 12 12 8 15 -3 4 -9 1 -13 -5z"/>
<path d="M955 520 c-16 -17 -16 -20 -3 -15 9 4 19 13 22 21 7 19 2 18 -19 -6z"/>
<path d="M36 513 c-6 -14 -5 -15 5 -6 7 7 10 15 7 18 -3 3 -9 -2 -12 -12z"/>
<path d="M1026 521 c-3 -5 1 -14 9 -21 12 -10 15 -9 15 4 0 17 25 22 35 6 3
-5 12 -7 20 -4 8 4 12 10 9 15 -7 12 -81 12 -88 0z"/>
<path d="M1920 521 c0 -6 5 -13 10 -16 6 -3 10 -1 10 5 0 6 10 10 23 8 12 -2
21 -9 19 -17 -3 -12 0 -12 12 -2 9 7 13 17 10 22 -7 12 -84 12 -84 0z"/>
<path d="M2155 520 c-4 -6 -16 -8 -28 -4 -21 6 -21 6 -3 -8 10 -8 16 -20 12
-26 -4 -7 -4 -12 1 -12 9 0 35 51 29 57 -2 3 -7 -1 -11 -7z"/>
<path d="M375 500 c10 -11 20 -20 23 -20 3 0 -3 9 -13 20 -10 11 -20 20 -23
20 -3 0 3 -9 13 -20z"/>
<path d="M830 495 c13 -14 26 -25 28 -25 3 0 -5 11 -18 25 -13 14 -26 25 -28
25 -3 0 5 -11 18 -25z"/>
<path d="M73 463 c15 -2 37 -2 50 0 12 2 0 4 -28 4 -27 0 -38 -2 -22 -4z"/>
<path d="M458 463 c12 -2 32 -2 45 0 12 2 2 4 -23 4 -25 0 -35 -2 -22 -4z"/>
<path d="M683 463 c9 -2 23 -2 30 0 6 3 -1 5 -18 5 -16 0 -22 -2 -12 -5z"/>
<path d="M973 463 c9 -2 25 -2 35 0 9 3 1 5 -18 5 -19 0 -27 -2 -17 -5z"/>
<path d="M1143 463 c15 -2 39 -2 55 0 15 2 2 4 -28 4 -30 0 -43 -2 -27 -4z"/>
<path d="M1428 463 c7 -3 16 -2 19 1 4 3 -2 6 -13 5 -11 0 -14 -3 -6 -6z"/>
<path d="M1638 463 c12 -2 30 -2 40 0 9 3 -1 5 -23 4 -22 0 -30 -2 -17 -4z"/>
<path d="M1863 463 c9 -2 25 -2 35 0 9 3 1 5 -18 5 -19 0 -27 -2 -17 -5z"/>
<path d="M2043 463 c15 -2 37 -2 50 0 12 2 0 4 -28 4 -27 0 -38 -2 -22 -4z"/>
<path d="M2318 463 c7 -3 16 -2 19 1 4 3 -2 6 -13 5 -11 0 -14 -3 -6 -6z"/>
</g>
</svg>
